<?xml version="1.0" standalone="no"?>
<!DOCTYPE svg PUBLIC "-//W3C//DTD SVG 20010904//EN"
 "http://www.w3.org/TR/2001/REC-SVG-20010904/DTD/svg10.dtd">
<svg version="1.0" xmlns="http://www.w3.org/2000/svg"
 width="512.000000pt" height="512.000000pt" viewBox="0 0 512.000000 512.000000"
 preserveAspectRatio="xMidYMid meet">
<metadata>
Created by potrace 1.11, written by Peter Selinger 2001-2013
</metadata>
<g transform="translate(0.000000,512.000000) scale(0.100000,-0.100000)"
fill="#000000" stroke="none">
<path d="M2499 5006 c-2 -2 -35 -7 -74 -10 -378 -34 -773 -174 -1094 -387
l-120 -79 -589 0 c-558 0 -590 -1 -605 -18 -16 -17 -17 -134 -17 -1483 0
-1240 2 -1468 14 -1484 13 -18 29 -19 224 -20 l209 0 49 -95 c60 -115 188
-309 274 -416 88 -108 277 -295 381 -376 281 -219 613 -380 944 -458 66 -15
140 -31 165 -35 25 -4 52 -9 61 -10 163 -31 575 -26 749 8 14 3 43 8 65 12 96
17 311 76 380 105 245 101 325 141 460 229 l100 64 497 1 496 1 26 24 26 24 0
1239 0 1239 -23 23 c-13 13 -27 25 -33 27 -5 2 -22 47 -38 99 -74 253 -172
464 -315 685 -35 54 -29 46 -125 168 l-85 107 0 98 c1 194 -1 210 -17 226 -13
13 -44 16 -184 16 l-169 0 -115 76 c-154 100 -317 183 -491 250 -143 54 -392
117 -517 130 -29 3 -64 8 -78 11 -29 6 -425 14 -431 9z"/>
</g>
</svg>
